<svg width="24" height="24" viewBox="0 0 28 28" fill="none" xmlns="http://www.w3.org/2000/svg">
<path fill-rule="evenodd" clip-rule="evenodd" d="M0.666687 14C0.666687 6.63596 6.63602 0.666626 14 0.666626C21.364 0.666626 27.3334 6.63596 27.3334 14C27.3334 21.364 21.364 27.3333 14 27.3333C6.63602 27.3333 0.666687 21.364 0.666687 14ZM14 3.33329C11.171 3.33329 8.45794 4.4571 6.45755 6.45749C4.45716 8.45787 3.33335 11.171 3.33335 14C3.33335 16.8289 4.45716 19.542 6.45755 21.5424C8.45794 23.5428 11.171 24.6666 14 24.6666C16.829 24.6666 19.5421 23.5428 21.5425 21.5424C23.5429 19.542 24.6667 16.8289 24.6667 14C24.6667 11.171 23.5429 8.45787 21.5425 6.45749C19.5421 4.4571 16.829 3.33329 14 3.33329Z" fill="#F5DD61"/>
<path fill-rule="evenodd" clip-rule="evenodd" d="M15.3333 7.33333C15.3333 6.97971 15.1929 6.64057 14.9428 6.39052C14.6928 6.14048 14.3536 6 14 6C13.6464 6 13.3072 6.14048 13.0572 6.39052C12.8071 6.64057 12.6667 6.97971 12.6667 7.33333V12.6667H7.33333C6.97971 12.6667 6.64057 12.8071 6.39052 13.0572C6.14048 13.3072 6 13.6464 6 14C6 14.3536 6.14048 14.6928 6.39052 14.9428C6.64057 15.1929 6.97971 15.3333 7.33333 15.3333H12.6667V20.6667C12.6667 21.0203 12.8071 21.3594 13.0572 21.6095C13.3072 21.8595 13.6464 22 14 22C14.3536 22 14.6928 21.8595 14.9428 21.6095C15.1929 21.3594 15.3333 21.0203 15.3333 20.6667V15.3333H20.6667C21.0203 15.3333 21.3594 15.1929 21.6095 14.9428C21.8595 14.6928 22 14.3536 22 14C22 13.6464 21.8595 13.3072 21.6095 13.0572C21.3594 12.8071 21.0203 12.6667 20.6667 12.6667H15.3333V7.33333Z" fill="#F5DD61"/>
</svg>
