<svg width="34" height="34" viewBox="0 0 34 34" fill="none" xmlns="http://www.w3.org/2000/svg">
<path d="M18.8913 20.3495C19.0799 20.1131 19.2844 19.8794 19.5075 19.6536C19.7413 19.4198 19.9856 19.2047 20.2327 19.0108C20.8224 19.2578 21.42 19.7147 21.7281 19.975C21.9061 20.1237 22.0761 20.2884 22.2408 20.4611C22.6127 20.8516 22.9633 21.2766 23.3405 21.6511C23.6938 22.0044 24.0497 22.3603 24.403 22.7162C24.403 22.7162 24.4667 23.2634 23.8425 23.8876C23.2183 24.5119 22.7003 24.4561 22.7003 24.4561C22.6445 24.4003 22.5914 24.3445 22.5356 24.2887C22.0044 23.7575 21.4174 23.2501 20.9286 22.6817C20.3097 21.9645 19.2977 21.2394 18.8992 20.3787C18.8966 20.3708 18.8939 20.3575 18.8913 20.3495Z" fill="#2F7889"/>
<path d="M23.1599 21.6723C24.4322 20.3017 25.5638 18.8169 26.4828 17.2789C26.8706 16.6308 27.3753 15.3425 27.5294 14.102C27.7074 12.6889 26.6634 11.4033 25.245 11.2758C23.5078 11.119 20.817 11.1775 18.8647 12.6198L12.5827 6.3378L6.30063 12.6172L12.5827 18.8965C11.1403 20.8462 11.0819 23.5344 11.2359 25.2715C11.3661 26.7086 12.6809 27.7472 14.11 27.5506C15.4063 27.37 16.7583 26.8148 17.425 26.4058C19.4809 25.1467 21.4492 23.5131 23.1599 21.6723Z" fill="#F44336"/>
<path d="M19.983 13.5097L12.5827 6.33514C12.5827 6.33514 11.0527 8.35921 9.88923 9.54655C8.72579 10.7312 6.29798 12.6172 6.29798 12.6172L13.4619 19.7784C13.4619 19.7784 16.1022 20.0228 18.0678 18.0572C20.3575 15.7648 19.983 13.5097 19.983 13.5097Z" fill="#F44336"/>
<path d="M16.4794 14.9148C16.1606 17.2842 15.2867 18.6123 14.8272 19.0134C14.0861 19.6536 13.0342 19.3481 12.5827 18.8992L6.30063 12.6172C6.30063 12.6172 8.72844 10.7339 9.89188 9.54655C11.0553 8.35921 12.5827 6.33514 12.5827 6.33514L15.4089 9.05514C15.9056 9.53327 16.2403 10.1575 16.3466 10.8375C16.4847 11.738 16.7477 12.9306 16.4794 14.9148Z" fill="#C62828"/>
<path d="M13.0502 1.46625L15.8366 4.25265C16.3572 4.65906 16.3731 5.17437 16.3731 5.17437C16.66 6.77343 15.0981 9.72453 12.4153 12.41C9.72984 15.0955 6.77875 16.6547 5.17969 16.3678C5.17969 16.3678 4.75469 16.4023 4.34563 15.9189L1.47156 13.0448L13.0502 1.46625Z" fill="#F44336"/>
<path d="M1.47156 13.0449C2.60844 14.3358 6.26609 12.657 9.46422 9.45892C12.6623 6.26079 14.2667 2.68283 13.0502 1.46626C11.8336 0.2497 8.2875 1.88861 5.0575 5.0522C1.93375 8.10954 0.308125 11.7247 1.47156 13.0449Z" fill="#F44336"/>
<path d="M19.8316 13.6319C19.8528 12.6092 21.8928 11.3847 23.1545 12.4286C24.2197 13.3105 23.7894 15.1884 23.2449 16.1739C22.6419 17.2656 21.7866 18.2776 20.6656 18.8248C19.542 19.3747 17.8527 19.0719 18.4477 17.9748C19.2366 16.5192 19.7838 15.8286 19.8316 13.6319ZM9.44564 8.86124C4.36689 13.8523 2.51017 12.8961 2.14361 12.6119C1.88329 12.4126 1.76111 12.062 1.72923 11.7247C1.64423 10.8375 2.23126 9.25436 2.66689 8.49202C3.80111 6.5078 4.88751 5.32577 8.08564 2.91921C9.49876 1.85405 11.5813 1.23515 12.2852 1.85405C13.1139 2.58187 13.2016 5.16905 9.44564 8.86124Z" fill="#FF7555"/>
</svg>
